PathFileType	4	(X/Y/Z)	C:\Users\WrightLab\Desktop\Jo\P2_Trial18.trc
DataRate	CameraRate	NumFrames	NumMarkers	Units	OrigDataRate	OrigDataStartFrame	OrigNumFrames
100.00	100.00	       18	19	mm	100.00	109	       433
Frame#	Time	Headset_Front			Headset_Back			Headset_Left			Headset_Right			Left_Shoulder			Right_Shoulder			Sternum			C7			Left Elbow			Right Elbow			Left Wrist			Right Wrist			Left ASIS			Right ASIS			S2			Left Knee			Right Knee			Left Ankle			Right Ankle			
		X1	Y1	Z1	X2	Y2	Z2	X3	Y3	Z3	X4	Y4	Z4	X5	Y5	Z5	X6	Y6	Z6	X7	Y7	Z7	X8	Y8	Z8	X9	Y9	Z9	X10	Y10	Z10	X11	Y11	Z11	X12	Y12	Z12	X13	Y13	Z13	X14	Y14	Z14	X15	Y15	Z15	X16	Y16	Z16	X17	Y17	Z17	X18	Y18	Z18	X19	Y19	Z19	

109	1.080	-704.24646	1646.19336	-370.60199	-702.36200	1443.00903	-143.29163	-593.28503	1542.97461	-287.38211	-810.20148	1521.80273	-212.99806	-565.36047	1381.31079	-370.18442	-888.91901	1407.23438	-375.57910	-744.14429	1284.81067	-295.51492	-742.46802	1380.67261	-481.97726	-502.03955	1105.53613	-341.31653	-1011.17059	1119.17957	-310.11227	-527.86072	1181.72766	-242.17921	-1018.96802	932.55157	-147.34947	-728.62659	985.60968	-243.51369	-722.55658	901.60754	-510.99063	-858.66486	980.31702	-275.55817	-718.99579	445.30490	-166.62733	-926.89362	509.44373	-526.93500	-730.84753	90.39767	-109.53796	-886.23438	180.20409	-727.83197	
110	1.090	-706.13965	1649.54553	-360.64566	-702.87213	1444.67212	-133.16595	-594.08148	1546.19531	-280.16837	-811.39819	1524.51929	-203.30711	-566.97888	1384.66492	-361.56015	-891.48755	1410.27234	-366.63144	-745.25177	1287.65662	-286.99359	-744.68762	1383.57080	-472.00116	-504.64035	1108.20642	-333.65619	-1012.17120	1121.48486	-300.03445	-530.01300	1185.86633	-232.72325	-1020.49738	931.82831	-138.69173	-728.45892	988.55121	-234.86008	-723.34656	904.38104	-500.78763	-856.77887	984.11487	-260.72781	-711.87256	445.32278	-161.88861	-928.69067	508.59592	-504.99341	-726.52222	91.60045	-111.49296	-895.72162	186.81480	-704.78241	
111	1.100	-707.97809	1653.20996	-351.06033	-703.04706	1446.78406	-125.43650	-595.38684	1549.35229	-271.06555	-809.75494	1525.60986	-192.47160	-568.93359	1388.01477	-353.43857	-893.50000	1413.38599	-356.00812	-746.29907	1291.39648	-279.64389	-747.20599	1386.20471	-462.74509	-502.78607	1111.73706	-322.22614	-1013.07434	1123.12830	-290.32965	-532.17889	1188.84485	-224.78548	-1022.71375	931.19623	-130.97179	-727.24432	993.02142	-222.93008	-724.26276	908.41058	-490.98349	-857.84320	984.97125	-254.20070	-706.25769	446.40930	-159.17215	-928.74640	507.09451	-481.81927	-725.63940	91.43936	-114.09400	-905.50446	192.97055	-679.81531	
112	1.110	-709.85626	1656.72729	-341.49268	-703.64966	1448.76440	-116.78986	-596.93726	1552.90137	-262.40027	-814.08618	1529.84924	-184.95810	-570.31567	1391.19873	-345.18903	-895.15936	1416.36145	-345.36649	-748.52985	1295.83447	-268.41333	-749.20679	1389.17090	-453.16592	-505.49069	1115.16064	-314.37851	-1014.50842	1125.59436	-281.57605				-1025.23511	931.42328	-123.39472	-727.23724	997.29755	-215.88773	-724.29260	912.07281	-481.54913	-855.82404	989.54218	-239.93936	-698.50464	446.66113	-155.84389	-930.01160	506.71301	-456.92252	-725.20715	91.43971	-115.85370	-917.25598	199.58836	-655.13947	
113	1.120	-711.66309	1660.31848	-332.10260	-703.79059	1451.95166	-109.13304	-597.61945	1556.36670	-255.12456	-810.98090	1531.26038	-173.89995	-571.95697	1394.24414	-337.34607	-897.66675	1419.53967	-336.62625	-749.92072	1300.03516	-259.39551	-751.73401	1392.69006	-444.73154	-505.47601	1118.00659	-307.29483	-1015.29333	1127.19324	-272.86530				-1027.54382	931.26807	-116.97264	-726.59064	1001.96655	-205.89284	-725.45660	915.70087	-471.29208	-856.31647	990.89954	-236.07610	-691.47040	445.51086	-153.56848	-932.77179	505.97449	-431.29504	-721.09967	92.66783	-117.57449	-928.53802	202.96930	-629.58929	
114	1.130	-713.55402	1663.82043	-323.00586	-703.87909	1454.48877	-100.57795	-598.95300	1559.88623	-245.98843	-812.31561	1534.04529	-164.34508	-573.78778	1398.10718	-329.21216	-898.49213	1422.15881	-325.74347	-750.72345	1301.91443	-252.50656	-753.37238	1394.67297	-434.12256	-506.28989	1121.73132	-299.81198	-1017.00659	1129.20667	-264.81796				-1030.48718	931.68927	-109.48917	-726.41248	1006.23383	-195.14650	-726.63739	918.59540	-461.85864	-855.56396	993.06580	-226.94023	-683.48694	444.48685	-150.11037	-935.58807	506.98309	-405.96704	-721.47638	90.21595	-119.70519				
115	1.140	-715.34833	1667.06042	-314.26367	-704.01050	1458.28625	-90.36695	-600.54352	1563.02441	-238.20853	-812.54724	1536.98792	-155.37598	-575.02124	1401.43542	-321.72321	-900.30591	1425.16235	-315.74005	-751.99805	1305.39331	-241.62564	-756.04028	1398.53857	-424.86670	-538.54517	1203.61084	-189.23706	-1018.35638	1130.63318	-256.50739	-504.64185	1126.27222	-289.36084	-1032.44922	931.25220	-103.19553	-725.13275	1009.64178	-187.42697	-727.02521	921.54572	-452.43301	-854.52521	998.02325	-209.63751	-676.02545	442.22763	-149.69791	-939.55292	507.54654	-379.08823	-718.41925	90.95953	-120.21296				
116	1.150	-717.13666	1669.87463	-305.82614	-704.11255	1461.32605	-82.96109	-601.25757	1566.75989	-230.28636	-813.16199	1539.83350	-145.19838	-576.78162	1404.72046	-314.03256	-901.50842	1428.09827	-305.72888	-752.61627	1308.79529	-231.76866	-757.81573	1400.59875	-415.97275	-507.20444	1129.27295	-283.69037	-1020.15198	1132.03601	-248.15639	-538.87122	1207.57104	-181.09326	-1035.65100	931.37439	-97.05355	-725.51477	1013.11993	-178.61087	-728.59796	924.32477	-443.47830	-855.00586	998.75385	-206.60774	-668.04877	440.42438	-147.77119	-943.93213	509.43042	-351.95575	-717.94934	90.25697	-121.15968				
117	1.160	-718.91217	1672.30896	-297.67697	-703.88342	1464.39832	-72.68273	-602.45599	1569.82739	-222.60678	-813.97046	1542.81836	-136.77171	-577.92725	1407.72717	-305.84628	-902.95258	1430.92908	-294.86859	-752.32239	1310.51953	-224.39229	-759.89117	1402.84167	-406.74158	-505.52600	1133.15552	-275.17297	-1022.23987	1133.53223	-240.52826				-1038.55750	931.01666	-91.53010	-723.79370	1016.06610	-169.44260	-730.34601	928.09100	-435.42679	-854.02985	1003.61835	-190.21301	-660.83112	439.15973	-146.15076	-948.93365	511.97339	-325.21841	-717.47931	89.14635	-122.42886				
118	1.170	-720.57324	1674.64954	-289.77240	-703.11499	1468.17151	-65.03011	-603.52032	1572.56909	-215.19171	-813.08978	1544.90515	-126.48066	-578.33887	1409.92859	-297.73660	-904.27533	1432.84900	-283.85196	-752.81030	1313.91809	-214.13339	-762.03540	1405.00488	-396.83197	-539.16156	1212.75793	-168.59895	-1024.60107	1134.73206	-232.11256				-1040.96741	931.00684	-86.29028	-722.88873	1018.67590	-163.01822	-733.49127	928.99445	-423.89655	-853.33069	1005.27216	-182.80257	-654.71643	438.64264	-146.40854	-955.18915	516.62811	-299.02844	-717.36194	88.42330	-123.45567				
119	1.180	-722.27911	1676.30188	-281.92953	-703.00409	1470.97498	-55.94199	-604.08234	1575.06592	-206.51111	-814.26709	1548.08691	-117.28303	-579.79736	1412.60132	-290.58005	-905.24921	1435.09021	-273.91412	-752.34717	1315.68396	-206.20239	-763.74243	1406.57471	-387.63470	-538.94836	1217.57361	-157.34258	-1026.15674	1135.06238	-223.86221	-507.84888	1138.64185	-263.40494	-1043.26538	930.10059	-79.66620	-720.85718	1022.03296	-152.70450	-736.10132	931.05096	-415.07431	-851.90497	1007.34119	-173.91068	-648.76855	438.07977	-147.35693	-960.40320	520.88367	-271.38971	-718.40875	87.39505	-123.85378	-986.30481	214.21306	-464.71832	
120	1.190	-723.70715	1677.97571	-273.86966				-604.89130	1577.97900	-196.00455	-814.80780	1550.56848	-108.63962	-581.45593	1414.74377	-282.88922	-906.07703	1436.67078	-262.50500	-753.18237	1318.63135	-192.90894	-765.75574	1408.67651	-378.35876	-538.46887	1217.74658	-154.45531	-1028.39856	1136.26367	-216.85548	-506.34671	1141.42529	-256.59180	-1045.68103	928.84625	-74.30222	-719.37823	1023.10669	-144.90150	-738.14581	932.81586	-406.15005	-851.26776	1011.18018	-159.74709	-644.12720	438.09698	-147.93958	-965.12372	525.15125	-243.81441	-716.57550	88.22266	-123.76773	-992.74017	214.84801	-439.95627	
121	1.200	-725.06171	1679.34973	-265.55734				-605.13336	1579.80823	-187.63863	-814.14899	1552.72131	-98.41998	-581.90881	1416.60437	-275.99615	-906.69904	1437.86743	-251.03796	-751.99194	1318.72742	-187.89951	-767.71899	1409.93909	-368.45547	-537.76227	1221.52185	-143.44975	-1030.27051	1136.02148	-208.20093				-1048.73291	927.50104	-69.22432	-716.12604	1024.38501	-134.49573	-740.86890	934.21069	-397.68378	-849.59821	1013.59576	-147.55692	-638.61115	438.25491	-148.78838	-969.40814	528.91711	-215.30042	-715.54694	88.55561	-124.24687	-999.77197	214.98325	-406.99741	
122	1.210	-726.16870	1680.77820	-257.84213				-605.92438	1582.10449	-180.25484	-814.07574	1555.42981	-88.84965	-583.03802	1418.31262	-268.78751	-907.61462	1439.13806	-240.13994	-752.20099	1320.75671	-175.45073	-769.80389	1411.90149	-360.00790	-537.59406	1224.68213	-136.79556	-1032.51770	1136.17322	-200.01163	-506.86484	1145.54089	-241.77306	-1051.00537	925.51129	-63.47432	-715.98737	1025.55774	-126.52260	-744.00458	935.82349	-388.84381	-847.79529	1012.56268	-141.58678	-635.97858	438.08511	-150.65704	-976.14996	534.78467	-188.70398	-713.93091	89.81870	-123.97304	-1007.96631	215.31619	-376.29211	
123	1.220	-727.23779	1681.58105	-249.32396				-606.06085	1583.58325	-172.65840	-812.94983	1557.02747	-79.44785	-583.82495	1420.13757	-261.85849	-908.17200	1440.20508	-229.30531	-751.15540	1322.10217	-169.03601	-771.62018	1412.69629	-349.92770	-536.09412	1224.30713	-134.80939	-1034.48242	1135.62793	-191.23459	-506.07474	1147.04907	-235.23080	-1053.83081	923.16937	-58.12509	-712.57050	1026.40283	-118.74776	-747.09589	937.14697	-381.05957	-845.02734	1014.49036	-124.45246	-633.87274	437.73477	-151.28828	-980.07080	541.75079	-163.85614	-712.60925	90.36252	-125.22706	-1014.52954	214.97194	-346.10858	
124	1.230	-728.01282	1682.57568	-241.06874				-606.45691	1585.28284	-165.07832	-813.64124	1558.30408	-70.22909	-584.53821	1421.48047	-254.63513	-908.65576	1440.98853	-218.76059	-750.04425	1323.16882	-160.70146	-772.76947	1413.26282	-340.13120	-534.54449	1226.87634	-124.10381	-1035.82886	1135.33008	-183.79385	-504.44019	1148.40369	-229.09781	-1056.40369	921.01111	-53.69054	-710.28027	1026.94604	-111.26452	-750.31763	937.72723	-371.88794	-843.82104	1014.29260	-115.80799	-632.05078	437.72995	-151.88629	-982.62531	548.83728	-141.27303	-712.17560	89.73843	-124.87988	-1020.89813	214.48216	-315.57266	
125	1.240	-728.57861	1683.41772	-232.54868				-606.17029	1586.29932	-157.26891	-812.05298	1558.62659	-60.19397	-585.04816	1422.60681	-247.63126	-909.32538	1441.44031	-207.37067	-749.92395	1322.70886	-151.33540	-774.69214	1414.25830	-330.02692	-533.89319	1226.04309	-121.35560	-1037.54602	1134.37683	-175.43674				-1058.80872	917.34583	-48.60461	-708.82654	1026.64526	-101.66421	-753.77765	938.20685	-363.26489	-842.00092	1015.11035	-105.48269	-630.42328	436.78616	-152.88664	-983.80634	555.80988	-119.75457	-710.15857	89.46748	-125.79905	-1028.16553	213.87044	-279.91107	
126	1.250	-729.05933	1683.94128	-223.91336				-606.20325	1587.40491	-149.42950	-811.11621	1560.13940	-50.87481	-585.37445	1423.66809	-240.68646	-909.74634	1441.63477	-196.94916	-749.02594	1324.79382	-140.53175	-775.98828	1415.19641	-321.15298	-532.27100	1228.09290	-111.62343	-1039.17700	1133.73022	-166.38008	-504.55090	1149.56982	-217.68045	-1062.09570	914.73486	-43.32413	-705.88641	1027.05115	-93.33984	-757.41034	938.62543	-354.75937	-839.72296	1015.01776	-97.63486	-629.00922	435.83566	-153.39835	-984.38599	561.90967	-97.33645	-706.27289	89.75235	-125.81031	-1032.41309	213.51137	-244.51187	
